<svg width="14" height="14" viewBox="0 0 14 14" fill="none" xmlns="http://www.w3.org/2000/svg">
<g clip-path="url(#clip0_43_882)">
<path d="M10.2082 0.535156C9.55136 0.545373 8.90883 0.728737 8.34551 1.06673C7.78218 1.40472 7.31802 1.88538 6.99989 2.46016C6.68177 1.88538 6.21761 1.40472 5.65428 1.06673C5.09096 0.728737 4.44842 0.545373 3.79156 0.535156C2.74444 0.580651 1.75789 1.03872 1.04743 1.80929C0.336979 2.57986 -0.0396269 3.6003 -0.000105711 4.64766C-0.000105711 8.59974 6.39089 13.1643 6.66273 13.358L6.99989 13.5966L7.33706 13.358C7.60889 13.1655 13.9999 8.59974 13.9999 4.64766C14.0394 3.6003 13.6628 2.57986 12.9524 1.80929C12.2419 1.03872 11.2553 0.580651 10.2082 0.535156Z" fill="white"/>
</g>
<defs>
<clipPath id="clip0_43_882">
<rect width="14" height="14" fill="white"/>
</clipPath>
</defs>
</svg>
