<svg width="267" height="355" viewBox="0 0 267 355" fill="none" xmlns="http://www.w3.org/2000/svg">
<path d="M65.6558 192.839H201.344V260.727C201.344 269.269 201.344 273.54 199.655 276.791C198.232 279.531 195.999 281.765 193.259 283.188C190.008 284.877 185.737 284.877 177.194 284.877H89.8058C81.2634 284.877 76.9922 284.877 73.7411 283.188C71.0015 281.765 68.7677 279.531 67.3446 276.791C65.6558 273.54 65.6558 269.269 65.6558 260.727V192.839Z" fill="#FFEFEF"/>
<path d="M133.495 146.404C104.627 146.404 80.1002 154.809 64.0802 167.984V192.489H202.92V167.984C186.9 154.809 162.368 146.404 133.495 146.404V146.404ZM260.966 133.828L133.158 74.8568L5.4043 133.828L26.7002 143.586V158.595C21.3602 159.702 21.3442 162.503 21.3442 165.835C21.3442 167.802 21.9957 170.107 23.2346 171.486L15.9294 187.142H41.9886L34.7476 171.476C35.9651 170.096 36.9637 168.064 36.9637 166.097C36.9637 162.771 32.0402 159.696 32.0402 158.589V146.094L58.7402 158.103V157.039C74.7602 143.089 102.907 134.234 133.49 134.234C164.082 134.234 192.24 143.089 208.26 157.039V158.103L260.966 133.828V133.828Z" fill="#001949"/>
<path d="M75.8388 212.038C79.7448 212.177 83.7663 212.246 87.9033 212.246C92.0635 212.246 96.0849 212.177 99.9678 212.038C100.06 212.408 100.106 212.662 100.106 212.801C100.106 212.963 100.06 213.251 99.9678 213.667C99.2744 213.737 98.7197 213.795 98.3037 213.841C97.8877 213.887 97.3099 213.968 96.5703 214.083C95.8538 214.199 95.2645 214.338 94.8022 214.5C94.3631 214.638 93.9009 214.823 93.4155 215.054C92.9302 215.285 92.5604 215.563 92.3061 215.886C92.075 216.21 91.9595 216.58 91.9595 216.996C91.867 220.069 91.8208 228.517 91.8208 242.338C91.8208 248.925 92.9186 253.709 95.1142 256.69C97.333 259.672 101.089 261.163 106.381 261.163C111.72 261.163 115.834 259.545 118.723 256.309C121.612 253.05 123.057 248.393 123.057 242.338C123.057 231.313 122.987 223.028 122.849 217.481C122.802 215.401 120.249 214.13 115.187 213.667C115.095 213.159 115.048 212.847 115.048 212.731C115.048 212.547 115.095 212.315 115.187 212.038C118.862 212.177 122.144 212.246 125.033 212.246C126.882 212.246 129.99 212.177 134.358 212.038C134.451 212.315 134.497 212.547 134.497 212.731C134.497 213.101 134.451 213.413 134.358 213.667C129.343 214.13 126.778 215.401 126.662 217.481C126.431 222.982 126.315 231.267 126.315 242.338C126.315 245.712 125.876 248.728 124.998 251.386C124.12 254.021 122.999 256.136 121.635 257.73C120.272 259.325 118.677 260.643 116.851 261.683C115.048 262.723 113.303 263.439 111.616 263.832C109.929 264.225 108.23 264.421 106.52 264.421C104.232 264.421 102.175 264.294 100.349 264.04C98.5233 263.786 96.7436 263.358 95.0102 262.757C93.2768 262.133 91.7746 261.278 90.5034 260.192C89.2322 259.083 88.1113 257.73 87.1406 256.136C86.1699 254.541 85.4419 252.588 84.9565 250.277C84.4712 247.966 84.2285 245.319 84.2285 242.338V236.652C84.2285 228.91 84.1014 222.358 83.8471 216.996C83.824 216.395 83.5582 215.886 83.0498 215.47C82.5413 215.031 81.8017 214.696 80.831 214.465C79.8834 214.234 79.0745 214.072 78.4043 213.979C77.7571 213.864 76.902 213.76 75.8388 213.667C75.7464 213.251 75.7002 212.963 75.7002 212.801C75.7002 212.662 75.7464 212.408 75.8388 212.038ZM163.704 211.518C164.051 211.264 164.421 211.102 164.813 211.033L183.777 258.389C184.008 258.967 184.389 259.464 184.921 259.88C185.452 260.273 186.111 260.585 186.897 260.816C187.706 261.024 188.399 261.186 188.977 261.301C189.578 261.394 190.306 261.486 191.161 261.579C191.254 261.948 191.3 262.26 191.3 262.515C191.3 262.792 191.254 263.046 191.161 263.277C186.169 263.092 182.436 263 179.963 263C177.282 263 173.4 263.092 168.315 263.277C168.223 263 168.176 262.723 168.176 262.445C168.176 262.145 168.223 261.856 168.315 261.579C172.984 261.07 175.318 260.192 175.318 258.944C175.318 258.551 175.272 258.146 175.179 257.73L170.152 244.834C168.627 244.788 166.57 244.765 163.981 244.765C162.757 244.765 159.579 244.811 154.448 244.903L149.144 258.389V258.805C149.144 259.036 149.178 259.256 149.248 259.464C149.34 259.672 149.479 259.857 149.664 260.019C149.872 260.18 150.068 260.319 150.253 260.435C150.438 260.55 150.692 260.666 151.016 260.781C151.362 260.874 151.651 260.955 151.882 261.024C152.137 261.07 152.472 261.128 152.888 261.197C153.327 261.267 153.662 261.324 153.893 261.371C154.124 261.394 154.459 261.428 154.898 261.475C155.361 261.521 155.684 261.556 155.869 261.579C155.962 261.948 156.008 262.26 156.008 262.515C156.008 262.653 155.962 262.908 155.869 263.277C150.692 263.092 147.78 263 147.133 263C145.885 263 142.672 263.092 137.495 263.277C137.403 263 137.356 262.723 137.356 262.445C137.356 262.145 137.403 261.856 137.495 261.579C142.302 261.024 145.041 259.845 145.711 258.042L160.619 220.462L159.856 218.417C161.173 217.539 162.086 216.591 162.595 215.574C163.126 214.557 163.496 213.205 163.704 211.518ZM163.981 242.061C166.108 242.061 167.783 242.037 169.008 241.991L162.421 224.935H162.283L155.661 241.922C157.834 242.014 160.607 242.061 163.981 242.061Z" fill="#001949"/>
</svg>
