<svg width="27" height="31" viewBox="0 0 27 31" fill="none" xmlns="http://www.w3.org/2000/svg">
<path d="M26.9189 27.9355L18.154 18.2C19.5142 16.2469 20.2499 13.8589 20.2499 11.3472C20.2499 8.34072 19.1935 5.52166 17.2833 3.39611C15.3731 1.27056 12.8283 0.100952 10.125 0.100952C7.42159 0.100952 4.87685 1.27431 2.96661 3.39611C1.053 5.51791 0 8.34072 0 11.3472C0 14.35 1.05637 17.1765 2.96661 19.2983C4.87685 21.4239 7.41822 22.5935 10.125 22.5935C12.3862 22.5935 14.5327 21.7763 16.2911 20.2693L25.0559 30.001C25.0816 30.0296 25.1121 30.0523 25.1457 30.0677C25.1793 30.0832 25.2153 30.0912 25.2516 30.0912C25.288 30.0912 25.324 30.0832 25.3576 30.0677C25.3912 30.0523 25.4217 30.0296 25.4474 30.001L26.9189 28.3703C26.9446 28.3418 26.965 28.3079 26.9789 28.2706C26.9928 28.2333 27 28.1933 27 28.1529C27 28.1125 26.9928 28.0725 26.9789 28.0352C26.965 27.9979 26.9446 27.964 26.9189 27.9355ZM15.4709 17.2853C14.0399 18.871 12.1432 19.7444 10.125 19.7444C8.10672 19.7444 6.20997 18.871 4.77898 17.2853C3.35136 15.6958 2.56499 13.589 2.56499 11.3472C2.56499 9.10547 3.35136 6.99492 4.77898 5.40919C6.20997 3.82347 8.10672 2.95001 10.125 2.95001C12.1432 2.95001 14.0433 3.81972 15.4709 5.40919C16.8986 6.99867 17.6849 9.10547 17.6849 11.3472C17.6849 13.589 16.8986 15.6995 15.4709 17.2853Z" fill="#001949"/>
</svg>
